Movie Info
Plot: Two British comic-book geeks traveling across the U.S. encounter an alien outside Area 51. 
IMDB: http://www.imdb.com/title/tt1092026/
IMDB Rating: 7.5
Trailer:



General Info
Size: 1.29GB
Format: AVI
Runtime: 1:38:14



Sources
Video - Paul.2011.TRUEFRENCH.TS.MD.XviD-ADDiCTED
Audio - Paul.2011.TS.XViD-T0XiCiNK
(THANKS)



Video Info
ID : 0
Format : MPEG-4 Visual
Format profile : Advanced Simple@L5
Format settings, BVOP : 2
Format settings, QPel : No
Format settings, GMC : No warppoints
Format settings, Matrix : Default (H.263)
Muxing mode : Packed bitstream
Codec ID : XVID
Codec ID/Hint : XviD
Duration : 1h 38mn
Bit rate : 1 743 Kbps
Width : 720 pixels
Height : 364 pixels
Display aspect ratio : 1.978
Frame rate : 25.000 fps
Color space : YUV
Chroma subsampling : 4:2:0
Bit depth : 8 bits
Scan type : Progressive
Compression mode : Lossy
Bits/(Pixel*Frame) : 0.266
Stream size : 1.20 GiB (93%)
Writing library : XviD 58


Audio Info
ID : 1
Format : MPEG Audio
Format version : Version 1
Format profile : Layer 3
Mode : Joint stereo
Mode extension : MS Stereo
Codec ID : 55
Codec ID/Hint : MP3
Duration : 1h 38mn
Bit rate mode : Constant
Bit rate : 128 Kbps
Channel(s) : 2 channels
Sampling rate : 44.1 KHz
Compression mode : Lossy
Stream size : 89.9 MiB (7%)
Alignment : Split accross interleaves
Interleave, duration : 40 ms (1.00 video frame)
Interleave, preload duration : 500 ms
#### ##       ##       ##     ##  ######  ####  #######  ##    ## 
 ##  ##       ##       ##     ## ##    ##  ##  ##     ## ###   ## 
 ##  ##       ##       ##     ## ##        ##  ##     ## ####  ## 
 ##  ##       ##       ##     ##  ######   ##  ##     ## ## ## ## 
 ##  ##       ##       ##     ##       ##  ##  ##     ## ##  #### 
 ##  ##       ##       ##     ## ##    ##  ##  ##     ## ##   ### 
#### ######## ########  #######   ######  ####  #######  ##    ## 

Encoders Notes
I dropped the source into vdubmod.
I sharpend it.
Then i lowered the brightness & increased the gamma,
changed the hue, lowered the saturation & de-noised it.
Finaly i changed the colors with a rgb eq & muxed my encode to 
T0XiCiNK's line.
The blacks are black (not grey), so the dark scene's may be a 
little hard to see.
The hue on the source looked a little off so i adjusted it.
Overal its a very watchable TS.
Download the sample's first to check that your happy with the quality.
(Ive included 2 sample's, 1 is during the night & the other 
is during the day)
Enjoy... 


I am looking for;
Cammers, Cams, Screeners (any type), Cam audio, Line audio, 
Un-released R6's R5's R4's R2's R1's, 
A 25GB+ FTP server, A Windows Server
& a syncer. 
If you can provide any of these please
contact me at illusion@hushmail.me


Greetz & Respect:
ChattChitto RG, Hunter, iNK, DiNGiE, Recalled2Life, Chaos, 
SERENiTY, IFLIX, Demedic, ELEKTRI4KA, MotleyCrue, Feel-Free, 
KRG, every uploader & encoder out there.





================================== 
http://thepiratebay.org/user/hiest
==================================





Screen Shots:
 
http://leetleech.org/images/49843031626240859674.jpg
 
http://leetleech.org/images/76606883009544203719.jpg
 
http://leetleech.org/images/63226414103363541320.jpg
 
http://leetleech.org/images/54887866078178882068.jpg
 
http://leetleech.org/images/30501739943056810293.jpg
 
http://leetleech.org/images/55488887817829226575.jpg

#### ##       ##       ##     ##  ######  ####  #######  ##    ## 
 ##  ##       ##       ##     ## ##    ##  ##  ##     ## ###   ## 
 ##  ##       ##       ##     ## ##        ##  ##     ## ####  ## 
 ##  ##       ##       ##     ##  ######   ##  ##     ## ## ## ## 
 ##  ##       ##       ##     ##       ##  ##  ##     ## ##  #### 
 ##  ##       ##       ##     ## ##    ##  ##  ##     ## ##   ### 
#### ######## ########  #######   ######  ####  #######  ##    ## 
